<svg xmlns="http://www.w3.org/2000/svg" aria-hidden="true" style="position:absolute;width:0;height:0;overflow:hidden">
  <defs>

    <symbol id="facebook" viewBox="0 0 28 28">
      <path d="M17.08 4.06h.84v3.15h-1.05c-.42 0-.84 0-1.05.21-.21.21-.21.42-.21.91v1.12h2.31v2.66h-2.31v11.55h-3.57V12.04h-1.89V9.38h1.89v-.91c0-1.54.21-2.66.63-3.15.63-.91 1.89-1.33 3.78-1.33.21.07.42.07.63.07Z"/>
    </symbol>

    <symbol id="instagram" viewBox="0 0 28 28">
      <path d="M25.128 9.411a8.098 8.098 0 0 0-.521-2.751 5.73 5.73 0 0 0-3.276-3.27 8.23 8.23 0 0 0-2.719-.522C17.416 2.815 17.036 2.8 14 2.8c-3.038 0-3.427 0-4.615.068-.93.02-1.849.195-2.718.522A5.726 5.726 0 0 0 3.39 6.66a8.127 8.127 0 0 0-.522 2.713c-.053 1.196-.07 1.575-.07 4.607 0 3.033 0 3.42.07 4.607a8.18 8.18 0 0 0 .522 2.716 5.729 5.729 0 0 0 3.276 3.269 8.2 8.2 0 0 0 2.718.558c1.198.054 1.577.07 4.615.07 3.037 0 3.427 0 4.615-.07a8.208 8.208 0 0 0 2.719-.52 5.736 5.736 0 0 0 3.275-3.27c.327-.869.502-1.785.521-2.715.054-1.195.07-1.574.07-4.608-.003-3.032-.003-3.417-.072-4.606ZM13.99 19.715a5.745 5.745 0 0 1-5.75-5.741 5.744 5.744 0 0 1 5.75-5.741c3.175 0 5.75 2.57 5.75 5.74a5.746 5.746 0 0 1-5.75 5.742Zm5.98-10.356a1.338 1.338 0 1 1 0-2.677 1.339 1.339 0 1 1 0 2.677Z"/>
      <path d="M13.993 17.479a3.503 3.503 0 1 0 0-7.007 3.503 3.503 0 0 0 0 7.007Z"/>
    </symbol>

    <symbol id="youtube" viewBox="0 0 28 28">
      <path fill-rule="evenodd" d="M21.21 5.25c-1.19-.07-3.64-.14-7.35-.14h-.49c-3.57 0-5.95.07-7.14.21-1.61.14-2.73.56-3.36 1.12-.56.49-.98 1.4-1.12 2.59-.07.77-.14 2.38-.14 4.83v.35c0 2.31.07 3.92.21 4.69.21 1.12.56 1.96 1.26 2.45.7.56 1.89.91 3.57 1.05 1.19.07 3.64.14 7.35.14h.49c3.57 0 5.95-.07 7.14-.21 1.61-.14 2.73-.56 3.36-1.12.56-.49.98-1.4 1.12-2.59.07-.77.14-2.38.14-4.83v-.35c0-2.31-.07-3.92-.21-4.69-.21-1.12-.56-1.96-1.26-2.45-.7-.56-1.89-.91-3.57-1.05Zm-2.73 8.61-7.7 4.62V9.24l7.7 4.62Z" clip-rule="evenodd"/>
    </symbol>

    <symbol id="arrow" viewBox="0 0 27 10">
      <path d="M20.2254 10C20.6012 9.08832 20.9644 8.2906 21.315 7.60684C21.6908 6.92308 22.054 6.35328 22.4046 5.89744L0.5 5.89744L0.5 4.10256L22.4046 4.10256C22.054 3.61823 21.6908 3.03419 21.315 2.35043C20.9644 1.66667 20.6012 0.883191 20.2254 0L21.5405 0C23.1185 2.07977 24.7717 3.61823 26.5 4.61538V5.38462C24.7717 6.35328 23.1185 7.89174 21.5405 10H20.2254Z"/>
    </symbol>

    <!-- <symbol id="star" viewBox="0 0 88 88">
      <path d="M43.133.505a1 1 0 0 1 1.733 0l6.068 10.534a1 1 0 0 0 1.43.327l10.148-6.923a1 1 0 0 1 1.562.76l.79 12.02a1 1 0 0 0 1.155.923l12.183-1.925a1 1 0 0 1 1.08 1.37l-4.6 11.125a1 1 0 0 0 .644 1.342l11.782 3.423a1 1 0 0 1 .385 1.708l-9.072 8.063a1 1 0 0 0 0 1.495l9.072 8.064a1 1 0 0 1-.385 1.708l-11.782 3.423a1 1 0 0 0-.645 1.342l4.602 11.125a1 1 0 0 1-1.08 1.37l-12.184-1.925a1 1 0 0 0-1.154.922l-.791 12.02a1 1 0 0 1-1.562.761l-10.148-6.922a1 1 0 0 0-1.43.326l-6.067 10.535a1 1 0 0 1-1.733 0l-6.068-10.534a1 1 0 0 0-1.43-.328l-10.148 6.923a1 1 0 0 1-1.562-.76l-.79-12.02a1 1 0 0 0-1.155-.923L9.798 71.78a1 1 0 0 1-1.08-1.37l4.6-11.125a1 1 0 0 0-.644-1.342L.892 54.519a1 1 0 0 1-.386-1.708l9.073-8.063a1 1 0 0 0 0-1.495L.506 35.188a1 1 0 0 1 .386-1.708l11.782-3.423a1 1 0 0 0 .645-1.342L8.718 17.59a1 1 0 0 1 1.08-1.37l12.183 1.925a1 1 0 0 0 1.154-.922l.791-12.02a1 1 0 0 1 1.562-.761l10.148 6.923a1 1 0 0 0 1.43-.327L43.133.505Z"/>
    </symbol> -->
    
    <!-- <symbol id="pattern" viewBox="0 0 595 528">
      <path d="M594.202 527.411h-18.557v-18.836h18.557v18.836ZM575.644 527.411h-18.557v-18.836h18.557v18.836ZM501.414 527.411h-18.557v-18.836h18.557v18.836Z"/>
      <path d="M482.857 527.411h-18.558v-18.836h18.558v18.836ZM464.299 527.411h-18.557v-18.836h18.557v18.836ZM352.954 527.411h-18.557v-18.836h18.557v18.836ZM241.614 527.411h-18.557v-18.836h18.557v18.836ZM130.269 527.411h-18.558v-18.836h18.558v18.836ZM111.711 527.411H93.154v-18.836h18.557v18.836ZM93.154 527.411H74.597v-18.836h18.557v18.836ZM18.924 527.411H.367v-18.836h18.557v18.836ZM594.202 508.575h-18.557v-18.836h18.557v18.836ZM519.972 508.575h-18.557v-18.836h18.557v18.836Z"/>
      <path d="M501.414 508.575h-18.557v-18.836h18.557v18.836Z"/>
      <path d="M482.857 508.575h-18.558v-18.836h18.558v18.836ZM352.954 508.575h-18.557v-18.836h18.557v18.836ZM334.397 508.575h-18.558v-18.836h18.558v18.836ZM260.172 508.575h-18.558v-18.836h18.558v18.836ZM241.614 508.575h-18.557v-18.836h18.557v18.836ZM111.711 508.575H93.154v-18.836h18.557v18.836ZM93.154 508.575H74.597v-18.836h18.557v18.836Z"/>
      <path d="M74.597 508.575H56.039v-18.836h18.558v18.836ZM538.53 489.739h-18.558v-18.836h18.558v18.836ZM519.972 489.739h-18.557v-18.836h18.557v18.836ZM501.414 489.739h-18.557v-18.836h18.557v18.836ZM352.954 489.739h-18.557v-18.836h18.557v18.836ZM334.397 489.739h-18.558v-18.836h18.558v18.836Z"/>
      <path d="M315.84 489.739h-18.558v-18.836h18.558v18.836ZM278.729 489.739h-18.558v-18.836h18.558v18.836Z"/>
      <path d="M260.172 489.739h-18.558v-18.836h18.558v18.836ZM241.614 489.739h-18.557v-18.836h18.557v18.836ZM93.154 489.739H74.597v-18.836h18.557v18.836Z"/>
      <path d="M74.597 489.739H56.039v-18.836h18.558v18.836Z"/>
      <path d="M56.039 489.739H37.48v-18.836H56.04v18.836ZM557.087 470.903h-18.558v-18.836h18.558v18.836Z"/>
      <path d="M538.53 470.903h-18.558v-18.836h18.558v18.836ZM519.972 470.903h-18.557v-18.836h18.557v18.836ZM427.184 470.903h-18.557v-18.836h18.557v18.836ZM408.627 470.903h-18.558v-18.836h18.558v18.836ZM390.069 470.903h-18.557v-18.836h18.557v18.836ZM334.397 470.903h-18.558v-18.836h18.558v18.836Z"/>
      <path d="M315.84 470.903h-18.558v-18.836h18.558v18.836ZM278.729 470.903h-18.558v-18.836h18.558v18.836Z"/>
      <path d="M260.172 470.903h-18.558v-18.836h18.558v18.836ZM204.499 470.903h-18.558v-18.836h18.558v18.836Z"/>
      <path d="M185.942 470.903h-18.558v-18.836h18.558v18.836ZM167.384 470.903h-18.557v-18.836h18.557v18.836ZM74.597 470.903H56.039v-18.836h18.558v18.836Z"/>
      <path d="M56.039 470.903H37.48v-18.836H56.04v18.836Z"/>
      <path d="M37.481 470.903H18.924v-18.836H37.48v18.836ZM575.644 452.067h-18.557v-18.836h18.557v18.836ZM557.087 452.067h-18.558v-18.836h18.558v18.836Z"/>
      <path d="M538.53 452.067h-18.558v-18.836h18.558v18.836ZM408.627 452.067h-18.558v-18.836h18.558v18.836ZM390.069 452.067h-18.557v-18.836h18.557v18.836ZM371.512 452.067h-18.557v-18.836h18.557v18.836ZM315.84 452.067h-18.558v-18.836h18.558v18.836ZM278.729 452.067h-18.558v-18.836h18.558v18.836ZM223.057 452.067h-18.558v-18.836h18.558v18.836ZM204.499 452.067h-18.558v-18.836h18.558v18.836Z"/>
      <path d="M185.942 452.067h-18.558v-18.836h18.558v18.836ZM56.039 452.067H37.48v-18.836H56.04v18.836Z"/>
      <path d="M37.481 452.067H18.924v-18.836H37.48v18.836ZM18.924 452.067H.367v-18.836h18.557v18.836ZM575.644 433.23h-18.557v-18.836h18.557v18.836ZM557.087 433.23h-18.558v-18.836h18.558v18.836ZM390.069 433.23h-18.557v-18.836h18.557v18.836ZM371.512 433.23h-18.557v-18.836h18.557v18.836ZM352.954 433.23h-18.557v-18.836h18.557v18.836ZM241.614 433.23h-18.557v-18.836h18.557v18.836ZM223.057 433.23h-18.558v-18.836h18.558v18.836ZM204.499 433.23h-18.558v-18.836h18.558v18.836ZM37.481 433.23H18.924v-18.836H37.48v18.836ZM18.924 433.23H.367v-18.836h18.557v18.836Z"/>
      <path d="M575.644 414.395h-18.557v-18.837h18.557v18.837ZM482.857 414.395h-18.558v-18.837h18.558v18.837ZM315.84 414.395h-18.558v-18.837h18.558v18.837ZM278.729 414.395h-18.558v-18.837h18.558v18.837ZM111.711 414.395H93.154v-18.837h18.557v18.837ZM18.924 414.395H.367v-18.837h18.557v18.837ZM482.857 395.558h-18.558v-18.836h18.558v18.836ZM464.299 395.558h-18.557v-18.836h18.557v18.836ZM334.397 395.558h-18.558v-18.836h18.558v18.836Z"/>
      <path d="M315.84 395.558h-18.558v-18.836h18.558v18.836ZM278.729 395.558h-18.558v-18.836h18.558v18.836Z"/>
      <path d="M260.172 395.558h-18.558v-18.836h18.558v18.836ZM130.269 395.558h-18.558v-18.836h18.558v18.836ZM111.711 395.558H93.154v-18.836h18.557v18.836ZM482.857 376.722h-18.558v-18.836h18.558v18.836ZM464.299 376.722h-18.557v-18.836h18.557v18.836Z"/>
      <path d="M445.742 376.722h-18.557v-18.836h18.557v18.836ZM352.954 376.722h-18.557v-18.836h18.557v18.836ZM334.397 376.722h-18.558v-18.836h18.558v18.836ZM260.172 376.722h-18.558v-18.836h18.558v18.836ZM241.614 376.722h-18.557v-18.836h18.557v18.836ZM148.827 376.722h-18.558v-18.836h18.558v18.836ZM130.269 376.722h-18.558v-18.836h18.558v18.836ZM111.711 376.722H93.154v-18.836h18.557v18.836Z"/>
      <path d="M464.299 357.886h-18.557V339.05h18.557v18.836Z"/>
      <path d="M445.742 357.886h-18.557V339.05h18.557v18.836ZM371.512 357.886h-18.557V339.05h18.557v18.836ZM352.954 357.886h-18.557V339.05h18.557v18.836ZM241.614 357.886h-18.557V339.05h18.557v18.836ZM223.057 357.886h-18.558V339.05h18.558v18.836ZM148.827 357.886h-18.558V339.05h18.558v18.836ZM130.269 357.886h-18.558V339.05h18.558v18.836ZM538.53 339.05h-18.558v-18.836h18.558v18.836ZM519.972 339.05h-18.557v-18.836h18.557v18.836ZM501.414 339.05h-18.557v-18.836h18.557v18.836ZM445.742 339.05h-18.557v-18.836h18.557v18.836ZM390.069 339.05h-18.557v-18.836h18.557v18.836ZM371.512 339.05h-18.557v-18.836h18.557v18.836ZM223.057 339.05h-18.558v-18.836h18.558v18.836ZM204.499 339.05h-18.558v-18.836h18.558v18.836ZM148.827 339.05h-18.558v-18.836h18.558v18.836ZM93.154 339.05H74.597v-18.836h18.557v18.836Z"/>
      <path d="M74.597 339.05H56.039v-18.836h18.558v18.836Z"/>
      <path d="M56.039 339.05H37.48v-18.836H56.04v18.836ZM594.202 320.214h-18.557v-18.836h18.557v18.836ZM519.972 320.214h-18.557v-18.836h18.557v18.836ZM501.414 320.214h-18.557v-18.836h18.557v18.836Z"/>
      <path d="M482.857 320.214h-18.558v-18.836h18.558v18.836ZM408.627 320.214h-18.558v-18.836h18.558v18.836ZM390.069 320.214h-18.557v-18.836h18.557v18.836ZM204.499 320.214h-18.558v-18.836h18.558v18.836Z"/>
      <path d="M185.942 320.214h-18.558v-18.836h18.558v18.836ZM111.711 320.214H93.154v-18.836h18.557v18.836ZM93.154 320.214H74.597v-18.836h18.557v18.836Z"/>
      <path d="M74.597 320.214H56.039v-18.836h18.558v18.836ZM594.202 301.378h-18.557v-18.836h18.557v18.836ZM575.644 301.378h-18.557v-18.836h18.557v18.836ZM501.414 301.378h-18.557v-18.836h18.557v18.836Z"/>
      <path d="M482.857 301.378h-18.558v-18.836h18.558v18.836ZM464.299 301.378h-18.557v-18.836h18.557v18.836ZM427.184 301.378h-18.557v-18.836h18.557v18.836ZM408.627 301.378h-18.558v-18.836h18.558v18.836ZM297.287 301.378h-18.558v-18.836h18.558v18.836ZM185.942 301.378h-18.558v-18.836h18.558v18.836ZM167.384 301.378h-18.557v-18.836h18.557v18.836ZM130.269 301.378h-18.558v-18.836h18.558v18.836ZM111.711 301.378H93.154v-18.836h18.557v18.836ZM93.154 301.378H74.597v-18.836h18.557v18.836ZM18.558 282.542H0v-18.837h18.558v18.837ZM37.481 282.542H18.924v-18.837H37.48v18.837ZM18.558 301.378H0v-18.836h18.558v18.836Z"/>
      <path d="M18.558 263.706H0v-18.837h18.558v18.837ZM594.202 282.542h-18.557v-18.837h18.557v18.837ZM575.644 282.542h-18.557v-18.837h18.557v18.837ZM557.087 282.542h-18.558v-18.837h18.558v18.837ZM315.84 282.542h-18.558v-18.837h18.558v18.837Z"/>
      <path d="M297.287 282.542h-18.558v-18.837h18.558v18.837ZM278.729 282.542h-18.558v-18.837h18.558v18.837ZM594.202 263.706h-18.557v-18.837h18.557v18.837ZM575.644 263.706h-18.557v-18.837h18.557v18.837ZM501.414 263.706h-18.557v-18.837h18.557v18.837Z"/>
      <path d="M482.857 263.706h-18.558v-18.837h18.558v18.837ZM464.299 263.706h-18.557v-18.837h18.557v18.837ZM427.184 263.706h-18.557v-18.837h18.557v18.837ZM408.627 263.706h-18.558v-18.837h18.558v18.837ZM297.287 263.706h-18.558v-18.837h18.558v18.837ZM185.942 263.706h-18.558v-18.837h18.558v18.837ZM167.384 263.706h-18.557v-18.837h18.557v18.837ZM130.269 263.706h-18.558v-18.837h18.558v18.837ZM111.711 263.706H93.154v-18.837h18.557v18.837ZM93.154 263.706H74.597v-18.837h18.557v18.837ZM594.202 244.87h-18.557v-18.836h18.557v18.836ZM519.972 244.87h-18.557v-18.836h18.557v18.836Z"/>
      <path d="M501.414 244.87h-18.557v-18.836h18.557v18.836Z"/>
      <path d="M482.857 244.87h-18.558v-18.836h18.558v18.836ZM408.627 244.87h-18.558v-18.836h18.558v18.836ZM390.069 244.87h-18.557v-18.836h18.557v18.836ZM204.499 244.87h-18.558v-18.836h18.558v18.836Z"/>
      <path d="M185.942 244.87h-18.558v-18.836h18.558v18.836ZM111.711 244.87H93.154v-18.836h18.557v18.836ZM93.154 244.87H74.597v-18.836h18.557v18.836Z"/>
      <path d="M74.597 244.87H56.039v-18.836h18.558v18.836ZM538.53 226.033h-18.558v-18.836h18.558v18.836ZM519.972 226.033h-18.557v-18.836h18.557v18.836ZM501.414 226.033h-18.557v-18.836h18.557v18.836ZM445.742 226.033h-18.557v-18.836h18.557v18.836ZM390.069 226.033h-18.557v-18.836h18.557v18.836ZM371.512 226.033h-18.557v-18.836h18.557v18.836ZM223.057 226.033h-18.558v-18.836h18.558v18.836ZM204.499 226.033h-18.558v-18.836h18.558v18.836ZM148.827 226.033h-18.558v-18.836h18.558v18.836ZM93.154 226.033H74.597v-18.836h18.557v18.836Z"/>
      <path d="M74.597 226.033H56.039v-18.836h18.558v18.836Z"/>
      <path d="M56.039 226.033H37.48v-18.836H56.04v18.836ZM464.299 207.197h-18.557v-18.836h18.557v18.836Z"/>
      <path d="M445.742 207.197h-18.557v-18.836h18.557v18.836ZM371.512 207.197h-18.557v-18.836h18.557v18.836ZM352.954 207.197h-18.557v-18.836h18.557v18.836ZM241.614 207.197h-18.557v-18.836h18.557v18.836ZM223.057 207.197h-18.558v-18.836h18.558v18.836ZM148.827 207.197h-18.558v-18.836h18.558v18.836ZM130.269 207.197h-18.558v-18.836h18.558v18.836ZM482.857 188.361h-18.558v-18.836h18.558v18.836ZM464.299 188.361h-18.557v-18.836h18.557v18.836Z"/>
      <path d="M445.742 188.361h-18.557v-18.836h18.557v18.836ZM352.954 188.361h-18.557v-18.836h18.557v18.836ZM334.397 188.361h-18.558v-18.836h18.558v18.836ZM260.172 188.361h-18.558v-18.836h18.558v18.836ZM241.614 188.361h-18.557v-18.836h18.557v18.836ZM148.827 188.361h-18.558v-18.836h18.558v18.836ZM130.269 188.361h-18.558v-18.836h18.558v18.836ZM111.711 188.361H93.154v-18.836h18.557v18.836ZM482.857 169.525h-18.558v-18.836h18.558v18.836Z"/>
      <path d="M464.299 169.525h-18.557v-18.836h18.557v18.836ZM334.397 169.525h-18.558v-18.836h18.558v18.836Z"/>
      <path d="M315.84 169.525h-18.558v-18.836h18.558v18.836ZM278.729 169.525h-18.558v-18.836h18.558v18.836Z"/>
      <path d="M260.172 169.525h-18.558v-18.836h18.558v18.836ZM130.269 169.525h-18.558v-18.836h18.558v18.836ZM111.711 169.525H93.154v-18.836h18.557v18.836ZM482.857 150.689h-18.558v-18.836h18.558v18.836ZM315.84 150.689h-18.558v-18.836h18.558v18.836ZM278.729 150.689h-18.558v-18.836h18.558v18.836ZM111.711 150.689H93.154v-18.836h18.557v18.836ZM575.644 131.853h-18.557v-18.837h18.557v18.837ZM18.924 131.853H.367v-18.837h18.557v18.837Z"/>
      <path d="M575.644 113.017h-18.557V94.18h18.557v18.837ZM557.087 113.017h-18.558V94.18h18.558v18.837ZM390.069 113.017h-18.557V94.18h18.557v18.837ZM371.512 113.017h-18.557V94.18h18.557v18.837ZM352.954 113.017h-18.557V94.18h18.557v18.837ZM241.614 113.017h-18.557V94.18h18.557v18.837ZM223.057 113.017h-18.558V94.18h18.558v18.837ZM204.499 113.017h-18.558V94.18h18.558v18.837ZM37.481 113.017H18.924V94.18H37.48v18.837ZM18.924 113.017H.367V94.18h18.557v18.837ZM575.644 94.18h-18.557V75.344h18.557V94.18ZM557.087 94.18h-18.558V75.344h18.558V94.18Z"/>
      <path d="M538.53 94.18h-18.558V75.344h18.558V94.18ZM408.627 94.18h-18.558V75.344h18.558V94.18ZM390.069 94.18h-18.557V75.344h18.557V94.18ZM371.512 94.18h-18.557V75.344h18.557V94.18ZM315.84 94.18h-18.558V75.344h18.558V94.18ZM278.729 94.18h-18.558V75.344h18.558V94.18ZM223.057 94.18h-18.558V75.344h18.558V94.18ZM204.499 94.18h-18.558V75.344h18.558V94.18Z"/>
      <path d="M185.942 94.18h-18.558V75.344h18.558V94.18ZM56.039 94.18H37.48V75.344H56.04V94.18Z"/>
      <path d="M37.481 94.18H18.924V75.344H37.48V94.18ZM18.924 94.18H.367V75.344h18.557V94.18ZM557.087 75.344h-18.558V56.508h18.558v18.836Z"/>
      <path d="M538.53 75.344h-18.558V56.508h18.558v18.836ZM519.972 75.344h-18.557V56.508h18.557v18.836ZM427.184 75.344h-18.557V56.508h18.557v18.836ZM408.627 75.344h-18.558V56.508h18.558v18.836ZM390.069 75.344h-18.557V56.508h18.557v18.836ZM334.397 75.344h-18.558V56.508h18.558v18.836Z"/>
      <path d="M315.84 75.344h-18.558V56.508h18.558v18.836ZM278.729 75.344h-18.558V56.508h18.558v18.836Z"/>
      <path d="M260.172 75.344h-18.558V56.508h18.558v18.836ZM204.499 75.344h-18.558V56.508h18.558v18.836Z"/>
      <path d="M185.942 75.344h-18.558V56.508h18.558v18.836ZM167.384 75.344h-18.557V56.508h18.557v18.836ZM74.597 75.344H56.039V56.508h18.558v18.836Z"/>
      <path d="M56.039 75.344H37.48V56.508H56.04v18.836Z"/>
      <path d="M37.481 75.344H18.924V56.508H37.48v18.836ZM538.53 56.508h-18.558V37.672h18.558v18.836ZM519.972 56.508h-18.557V37.672h18.557v18.836ZM501.414 56.508h-18.557V37.672h18.557v18.836ZM352.954 56.508h-18.557V37.672h18.557v18.836ZM334.397 56.508h-18.558V37.672h18.558v18.836Z"/>
      <path d="M315.84 56.508h-18.558V37.672h18.558v18.836ZM278.729 56.508h-18.558V37.672h18.558v18.836Z"/>
      <path d="M260.172 56.508h-18.558V37.672h18.558v18.836ZM241.614 56.508h-18.557V37.672h18.557v18.836ZM93.154 56.508H74.597V37.672h18.557v18.836Z"/>
      <path d="M74.597 56.508H56.039V37.672h18.558v18.836Z"/>
      <path d="M56.039 56.508H37.48V37.672H56.04v18.836ZM594.202 37.672h-18.557V18.836h18.557v18.836ZM519.972 37.672h-18.557V18.836h18.557v18.836ZM501.414 37.672h-18.557V18.836h18.557v18.836Z"/>
      <path d="M482.857 37.672h-18.558V18.836h18.558v18.836ZM352.954 37.672h-18.557V18.836h18.557v18.836ZM334.397 37.672h-18.558V18.836h18.558v18.836ZM260.172 37.672h-18.558V18.836h18.558v18.836ZM241.614 37.672h-18.557V18.836h18.557v18.836ZM111.711 37.672H93.154V18.836h18.557v18.836ZM93.154 37.672H74.597V18.836h18.557v18.836Z"/>
      <path d="M74.597 37.672H56.039V18.836h18.558v18.836ZM594.202 18.836h-18.557V0h18.557v18.836ZM575.644 18.836h-18.557V0h18.557v18.836ZM501.414 18.836h-18.557V0h18.557v18.836Z"/>
      <path d="M482.857 18.836h-18.558V0h18.558v18.836ZM464.299 18.836h-18.557V0h18.557v18.836ZM352.954 18.836h-18.557V0h18.557v18.836ZM241.614 18.836h-18.557V0h18.557v18.836ZM130.269 18.836h-18.558V0h18.558v18.836ZM111.711 18.836H93.154V0h18.557v18.836ZM93.154 18.836H74.597V0h18.557v18.836ZM18.924 18.836H.367V0h18.557v18.836Z"/>
    </symbol> -->
  </defs>
</svg>
